<?xml version="1.0" encoding="utf-8"?>
<!-- Generator: Adobe Illustrator 18.1.0, SVG Export Plug-In . SVG Version: 6.00 Build 0)  -->
<svg version="1.1" id="Layer_1" xmlns="http://www.w3.org/2000/svg" xmlns:xlink="http://www.w3.org/1999/xlink" x="0px" y="0px"
	 viewBox="0 0 313 313" enable-background="new 0 0 313 313" xml:space="preserve">
<g>
	<g>
		<path opacity="0.4" fill="#C8C7C7" d="M156.5,26.3c-71.9,0-130.2,58.3-130.2,130.2c0,71.9,58.3,130.2,130.2,130.2
			c71.9,0,130.2-58.3,130.2-130.2C286.7,84.6,228.4,26.3,156.5,26.3z M156.3,267.6c-61.2,0-110.8-49.6-110.8-110.8
			c0-61.2,49.6-110.8,110.8-110.8c61.2,0,110.8,49.6,110.8,110.8C267.2,218,217.5,267.6,156.3,267.6z"/>
		<g>
			<path opacity="0.26" fill="#575858" d="M156.5,0C70.1,0,0,70.1,0,156.5C0,242.9,70.1,313,156.5,313
				c86.4,0,156.5-70.1,156.5-156.5C313,70.1,242.9,0,156.5,0z M156.5,291.2c-74.4,0-134.7-60.3-134.7-134.7
				c0-74.4,60.3-134.7,134.7-134.7c74.4,0,134.7,60.3,134.7,134.7C291.2,230.9,230.9,291.2,156.5,291.2z"/>
		</g>
		<line fill="none" stroke="#575858" stroke-width="4" stroke-miterlimit="10" x1="156.2" y1="19" x2="156.2" y2="32"/>
		<line fill="none" stroke="#575858" stroke-width="2" stroke-miterlimit="10" x1="144.7" y1="19.7" x2="145.8" y2="32.4"/>
		<line fill="none" stroke="#575858" stroke-width="2" stroke-miterlimit="10" x1="132.8" y1="21.2" x2="135" y2="33.8"/>
		<line fill="none" stroke="#575858" stroke-width="2" stroke-miterlimit="10" x1="121.1" y1="23.8" x2="124.4" y2="36.1"/>
		<line fill="none" stroke="#575858" stroke-width="2" stroke-miterlimit="10" x1="109.6" y1="27.4" x2="114" y2="39.4"/>
		<line fill="none" stroke="#575858" stroke-width="2" stroke-miterlimit="10" x1="98.5" y1="31.9" x2="103.9" y2="43.5"/>
		<line fill="none" stroke="#575858" stroke-width="2" stroke-miterlimit="10" x1="87.9" y1="37.5" x2="94.3" y2="48.5"/>
		<line fill="none" stroke="#575858" stroke-width="2" stroke-miterlimit="10" x1="77.7" y1="43.9" x2="85.1" y2="54.3"/>
		<line fill="none" stroke="#575858" stroke-width="2" stroke-miterlimit="10" x1="68.2" y1="51.2" x2="76.4" y2="60.9"/>
		<line fill="none" stroke="#575858" stroke-width="2" stroke-miterlimit="10" x1="59.3" y1="59.2" x2="68.4" y2="68.3"/>
		<line fill="none" stroke="#575858" stroke-width="2" stroke-miterlimit="10" x1="51.2" y1="68.1" x2="61" y2="76.3"/>
		<line fill="none" stroke="#575858" stroke-width="2" stroke-miterlimit="10" x1="43.9" y1="77.6" x2="54.3" y2="84.9"/>
		<line fill="none" stroke="#575858" stroke-width="2" stroke-miterlimit="10" x1="37.4" y1="87.7" x2="48.5" y2="94"/>
		<line fill="none" stroke="#575858" stroke-width="2" stroke-miterlimit="10" x1="31.8" y1="98.3" x2="43.4" y2="103.7"/>
		<line fill="none" stroke="#575858" stroke-width="2" stroke-miterlimit="10" x1="27.2" y1="109.4" x2="39.2" y2="113.7"/>
		<line fill="none" stroke="#575858" stroke-width="2" stroke-miterlimit="10" x1="23.6" y1="120.8" x2="35.9" y2="124.1"/>
		<line fill="none" stroke="#575858" stroke-width="2" stroke-miterlimit="10" x1="21" y1="132.5" x2="33.5" y2="134.7"/>
		<line fill="none" stroke="#575858" stroke-width="2" stroke-miterlimit="10" x1="19.4" y1="144.4" x2="32.1" y2="145.5"/>
		<line fill="none" stroke="#575858" stroke-width="2" stroke-miterlimit="10" x1="18.2" y1="156" x2="32.2" y2="156"/>
		<line fill="none" stroke="#575858" stroke-width="2" stroke-miterlimit="10" x1="19.3" y1="168.3" x2="32" y2="167.2"/>
		<line fill="none" stroke="#575858" stroke-width="2" stroke-miterlimit="10" x1="20.9" y1="180.2" x2="33.4" y2="178"/>
		<line fill="none" stroke="#575858" stroke-width="2" stroke-miterlimit="10" x1="23.4" y1="191.9" x2="35.7" y2="188.6"/>
		<line fill="none" stroke="#575858" stroke-width="2" stroke-miterlimit="10" x1="27" y1="203.4" x2="39" y2="199"/>
		<line fill="none" stroke="#575858" stroke-width="2" stroke-miterlimit="10" x1="31.5" y1="214.5" x2="43.1" y2="209.1"/>
		<line fill="none" stroke="#575858" stroke-width="2" stroke-miterlimit="10" x1="37" y1="225.1" x2="48.1" y2="218.7"/>
		<line fill="none" stroke="#575858" stroke-width="2" stroke-miterlimit="10" x1="43.5" y1="235.3" x2="53.9" y2="227.9"/>
		<line fill="none" stroke="#575858" stroke-width="2" stroke-miterlimit="10" x1="50.7" y1="244.8" x2="60.5" y2="236.6"/>
		<line fill="none" stroke="#575858" stroke-width="2" stroke-miterlimit="10" x1="58.8" y1="253.7" x2="67.8" y2="244.6"/>
		<line fill="none" stroke="#575858" stroke-width="2" stroke-miterlimit="10" x1="67.6" y1="261.8" x2="75.8" y2="252"/>
		<line fill="none" stroke="#575858" stroke-width="2" stroke-miterlimit="10" x1="77.1" y1="269.1" x2="84.4" y2="258.7"/>
		<line fill="none" stroke="#575858" stroke-width="2" stroke-miterlimit="10" x1="234.8" y1="269.5" x2="227.5" y2="259.1"/>
		<line fill="none" stroke="#575858" stroke-width="2" stroke-miterlimit="10" x1="244.4" y1="262.3" x2="236.2" y2="252.5"/>
		<line fill="none" stroke="#575858" stroke-width="2" stroke-miterlimit="10" x1="253.2" y1="254.2" x2="244.2" y2="245.2"/>
		<line fill="none" stroke="#575858" stroke-width="2" stroke-miterlimit="10" x1="261.4" y1="245.4" x2="251.6" y2="237.2"/>
		<line fill="none" stroke="#575858" stroke-width="2" stroke-miterlimit="10" x1="268.7" y1="235.9" x2="258.2" y2="228.6"/>
		<line fill="none" stroke="#575858" stroke-width="2" stroke-miterlimit="10" x1="275.2" y1="225.8" x2="264.1" y2="219.4"/>
		<line fill="none" stroke="#575858" stroke-width="2" stroke-miterlimit="10" x1="280.7" y1="215.2" x2="269.2" y2="209.8"/>
		<line fill="none" stroke="#575858" stroke-width="2" stroke-miterlimit="10" x1="285.3" y1="204.1" x2="273.3" y2="199.7"/>
		<line fill="none" stroke="#575858" stroke-width="2" stroke-miterlimit="10" x1="289" y1="192.7" x2="276.7" y2="189.4"/>
		<line fill="none" stroke="#575858" stroke-width="2" stroke-miterlimit="10" x1="291.6" y1="181" x2="279" y2="178.8"/>
		<line fill="none" stroke="#575858" stroke-width="2" stroke-miterlimit="10" x1="293.2" y1="169.1" x2="280.5" y2="168"/>
		<line fill="none" stroke="#575858" stroke-width="2" stroke-miterlimit="10" x1="294.2" y1="157" x2="281.2" y2="157"/>
		<line fill="none" stroke="#575858" stroke-width="2" stroke-miterlimit="10" x1="293.3" y1="145.1" x2="280.6" y2="146.3"/>
		<line fill="none" stroke="#575858" stroke-width="2" stroke-miterlimit="10" x1="291.7" y1="133.3" x2="279.2" y2="135.5"/>
		<line fill="none" stroke="#575858" stroke-width="2" stroke-miterlimit="10" x1="289.2" y1="121.5" x2="276.9" y2="124.8"/>
		<line fill="none" stroke="#575858" stroke-width="2" stroke-miterlimit="10" x1="285.6" y1="110.1" x2="273.6" y2="114.5"/>
		<line fill="none" stroke="#575858" stroke-width="2" stroke-miterlimit="10" x1="281" y1="99" x2="269.5" y2="104.4"/>
		<line fill="none" stroke="#575858" stroke-width="2" stroke-miterlimit="10" x1="275.5" y1="88.4" x2="264.5" y2="94.7"/>
		<line fill="none" stroke="#575858" stroke-width="2" stroke-miterlimit="10" x1="269.1" y1="78.2" x2="258.7" y2="85.5"/>
		<line fill="none" stroke="#575858" stroke-width="2" stroke-miterlimit="10" x1="261.8" y1="68.7" x2="252.1" y2="76.9"/>
		<line fill="none" stroke="#575858" stroke-width="2" stroke-miterlimit="10" x1="253.8" y1="59.8" x2="244.8" y2="68.8"/>
		<line fill="none" stroke="#575858" stroke-width="2" stroke-miterlimit="10" x1="245" y1="51.7" x2="236.8" y2="61.5"/>
		<line fill="none" stroke="#575858" stroke-width="2" stroke-miterlimit="10" x1="235.5" y1="44.4" x2="228.1" y2="54.8"/>
		<line fill="none" stroke="#575858" stroke-width="2" stroke-miterlimit="10" x1="225.4" y1="37.9" x2="219" y2="49"/>
		<line fill="none" stroke="#575858" stroke-width="2" stroke-miterlimit="10" x1="214.8" y1="32.3" x2="209.4" y2="43.9"/>
		<line fill="none" stroke="#575858" stroke-width="2" stroke-miterlimit="10" x1="203.7" y1="27.7" x2="199.3" y2="39.7"/>
		<line fill="none" stroke="#575858" stroke-width="2" stroke-miterlimit="10" x1="192.3" y1="24.1" x2="189" y2="36.4"/>
		<line fill="none" stroke="#575858" stroke-width="2" stroke-miterlimit="10" x1="180.6" y1="21.5" x2="178.4" y2="34"/>
		<line fill="none" stroke="#575858" stroke-width="2" stroke-miterlimit="10" x1="168.7" y1="19.9" x2="167.6" y2="32.6"/>
		<path fill="#575858" d="M156.5,25.2C84,25.2,25.2,84,25.2,156.5c0,72.5,58.8,131.3,131.3,131.3c72.5,0,131.3-58.8,131.3-131.3
			C287.8,84,229,25.2,156.5,25.2z M156.5,286.7c-71.9,0-130.2-58.3-130.2-130.2c0-71.9,58.3-130.2,130.2-130.2
			c71.9,0,130.2,58.3,130.2,130.2C286.7,228.4,228.4,286.7,156.5,286.7z"/>
	</g>
</g>
</svg>
