<?xml version="1.0" encoding="utf-8"?>
<!-- Generator: Adobe Illustrator 18.1.0, SVG Export Plug-In . SVG Version: 6.00 Build 0)  -->
<svg version="1.1" id="Layer_1" xmlns="http://www.w3.org/2000/svg" xmlns:xlink="http://www.w3.org/1999/xlink" x="0px" y="0px"
	 viewBox="0 0 25.8 25.8" enable-background="new 0 0 25.8 25.8" xml:space="preserve">
<path fill="#135EAC" d="M25,15.7c0,0-1.4-1-2.1-1.6c0.1-0.6,0.1-1.2,0.1-1.9c0.8-0.4,2.1-1.1,2.1-1.1c0.5-0.3,0.8-0.8,0.6-1.4
	l-0.3-1.1c-0.2-0.7-0.5-1.3-0.8-1.8c-0.2-0.5-0.7-0.7-1.3-0.6c0,0-1.7,0.2-2.6,0.4c-0.3-0.4-0.7-0.8-1.1-1.2
	c0.3-0.9,0.7-2.3,0.7-2.3c0.1-0.3,0.1-0.5,0-0.8c-0.1-0.3-0.3-0.5-0.5-0.6c-0.9-0.6-1.8-1-2.8-1.3c-0.5-0.2-1,0-1.4,0.4
	c0,0-1.1,1.4-1.6,2.1c-0.5-0.1-1-0.1-1.5-0.1c-0.4-0.8-1.2-2.2-1.2-2.2c-0.3-0.5-0.8-0.7-1.3-0.6c-0.5,0.1-1,0.2-1.5,0.4l-0.1,0
	L8.3,0.6c0,0-0.2,0.1-0.2,0.1l-0.1,0c0,0-0.5,0.2-0.5,0.2L7.3,1C6.9,1.2,6.6,1.7,6.6,2.3c0,0,0.2,1.6,0.4,2.5
	C6.5,5.1,6.1,5.5,5.7,5.9C4.9,5.6,3.3,5.1,3.3,5.1C2.8,5,2.3,5.2,2,5.6C1.4,6.4,1,7.3,0.6,8.3c-0.1,0.3-0.1,0.6,0,0.8
	C0.7,9.3,0.8,9.5,1,9.7c0,0,1.3,1,2,1.5c-0.1,0.6-0.2,1.3-0.2,1.9c-0.8,0.4-2.2,1.1-2.2,1.1C0.2,14.5-0.1,15,0,15.5
	c0.1,0.5,0.2,1,0.4,1.6c0.2,0.5,0.3,0.9,0.5,1.2c0.2,0.5,0.7,0.8,1.3,0.7c0,0,1.6-0.2,2.5-0.4c0.4,0.6,0.9,1.1,1.4,1.6
	c-0.3,0.9-0.7,2.3-0.7,2.3c-0.1,0.2-0.1,0.5,0,0.7c0.1,0.3,0.3,0.5,0.5,0.6c0.8,0.5,1.7,0.9,2.6,1.3c0.5,0.2,1.1,0,1.4-0.4
	c0,0,1-1.3,1.5-2c0.7,0.1,1.4,0.2,2.2,0.1c0.4,0.8,1.1,2.1,1.1,2.1c0.3,0.5,0.8,0.8,1.3,0.6l1.2-0.3c0.6-0.2,1.1-0.4,1.6-0.6
	c0.5-0.2,0.7-0.7,0.7-1.3c0,0-0.2-1.7-0.4-2.6c0.6-0.4,1.1-0.9,1.5-1.4c0.9,0.3,2.3,0.7,2.3,0.7c0.5,0.2,1.1-0.1,1.4-0.5
	c0.5-0.8,0.9-1.7,1.2-2.7c0.1-0.3,0.1-0.5,0-0.8C25.3,16,25.2,15.8,25,15.7z M12.9,19.1c-3.6,0-6.5-2.9-6.5-6.5
	c0-3.6,2.9-6.5,6.5-6.5c3.6,0,6.5,2.9,6.5,6.5C19.3,16.2,16.4,19.1,12.9,19.1z"/>
<circle fill="#135EAC" cx="12.9" cy="12.6" r="4.1"/>
</svg>
